<mxfile host="app.diagrams.net" modified="2022-07-11T13:45:44.584Z" agent="5.0 (Macintosh; Intel Mac OS X 10_15_7) AppleWebKit/537.36 (KHTML, like Gecko) Chrome/103.0.0.0 Safari/537.36" etag="Lq-ugTj9Ixg26n7MPvWW" version="20.0.4" type="github">
  <diagram id="FTU6m_eaPZ_RoDYtO6FZ" name="Page-1">
    <mxGraphModel dx="1242" dy="752" grid="1" gridSize="10" guides="1" tooltips="1" connect="1" arrows="1" fold="1" page="1" pageScale="1" pageWidth="827" pageHeight="1169" math="0" shadow="0">
      <root>
        <mxCell id="0" />
        <mxCell id="1" parent="0" />
        <mxCell id="IwslQuK-jiWpeA-pguTB-5" value="" style="edgeStyle=orthogonalEdgeStyle;rounded=0;orthogonalLoop=1;jettySize=auto;html=1;" edge="1" parent="1" target="IwslQuK-jiWpeA-pguTB-4">
          <mxGeometry relative="1" as="geometry">
            <mxPoint x="190" y="330" as="sourcePoint" />
          </mxGeometry>
        </mxCell>
        <mxCell id="IwslQuK-jiWpeA-pguTB-7" value="" style="edgeStyle=orthogonalEdgeStyle;rounded=0;orthogonalLoop=1;jettySize=auto;html=1;" edge="1" parent="1" source="IwslQuK-jiWpeA-pguTB-4" target="IwslQuK-jiWpeA-pguTB-6">
          <mxGeometry relative="1" as="geometry" />
        </mxCell>
        <mxCell id="IwslQuK-jiWpeA-pguTB-4" value="开发分支" style="rounded=1;whiteSpace=wrap;html=1;" vertex="1" parent="1">
          <mxGeometry x="280" y="300" width="120" height="60" as="geometry" />
        </mxCell>
        <mxCell id="IwslQuK-jiWpeA-pguTB-9" value="" style="edgeStyle=orthogonalEdgeStyle;rounded=0;orthogonalLoop=1;jettySize=auto;html=1;" edge="1" parent="1" source="IwslQuK-jiWpeA-pguTB-6" target="IwslQuK-jiWpeA-pguTB-8">
          <mxGeometry relative="1" as="geometry" />
        </mxCell>
        <mxCell id="IwslQuK-jiWpeA-pguTB-6" value="测试分支" style="whiteSpace=wrap;html=1;rounded=1;" vertex="1" parent="1">
          <mxGeometry x="480" y="300" width="120" height="60" as="geometry" />
        </mxCell>
        <mxCell id="IwslQuK-jiWpeA-pguTB-8" value="正式分支" style="whiteSpace=wrap;html=1;rounded=1;" vertex="1" parent="1">
          <mxGeometry x="680" y="300" width="120" height="60" as="geometry" />
        </mxCell>
        <mxCell id="IwslQuK-jiWpeA-pguTB-12" value="个人代码" style="rounded=1;whiteSpace=wrap;html=1;" vertex="1" parent="1">
          <mxGeometry x="70" y="300" width="120" height="60" as="geometry" />
        </mxCell>
      </root>
    </mxGraphModel>
  </diagram>
</mxfile>
